<svg xmlns="http://www.w3.org/2000/svg" width="64" height="64" viewBox="0 0 64 64" fill="none">
  <defs>
    <linearGradient id="crust" x1="8" y1="52" x2="56" y2="12" gradientUnits="userSpaceOnUse">
      <stop stop-color="#E67E22"/>
      <stop offset="1" stop-color="#C0392B"/>
    </linearGradient>
    <linearGradient id="cheese" x1="32" y1="18" x2="32" y2="50" gradientUnits="userSpaceOnUse">
      <stop stop-color="#F5D76E"/>
      <stop offset="1" stop-color="#F39C12"/>
    </linearGradient>
    <linearGradient id="crown" x1="32" y1="4" x2="32" y2="18" gradientUnits="userSpaceOnUse">
      <stop stop-color="#F5B041"/>
      <stop offset="1" stop-color="#E67E22"/>
    </linearGradient>
  </defs>
  <path d="M16 16 L20 8 L26 14 L32 4 L38 14 L44 8 L48 16 L44 18 L20 18 Z" fill="url(#crown)"/>
  <rect x="18" y="17" width="28" height="3" rx="1.5" fill="#96281B"/>
  <circle cx="32" cy="36" r="22" fill="url(#crust)"/>
  <circle cx="32" cy="36" r="17" fill="url(#cheese)"/>
  <path d="M32 36 L32 14 A22 22 0 0 1 52 28 Z" fill="url(#crust)" opacity="0.95"/>
  <path d="M32 36 L32 19 A17 17 0 0 1 47 30 Z" fill="#E8A020" opacity="0.6"/>
  <circle cx="24" cy="34" r="3" fill="#C0392B"/>
  <circle cx="36" cy="30" r="2.5" fill="#C0392B"/>
  <circle cx="30" cy="42" r="2.8" fill="#C0392B"/>
  <circle cx="40" cy="40" r="2.2" fill="#96281B"/>
  <circle cx="22" cy="42" r="2" fill="#96281B"/>
  <path d="M32 14 L32 58" stroke="#96281B" stroke-width="2" stroke-linecap="round" opacity="0.5"/>
</svg>
